HIERARCHY
ROOT Hips
{
	OFFSET 0.000000 0.000000 0.000000 
	CHANNELS 6 Xposition Yposition Zposition Yrotation Zrotation Xrotation 
	JOINT Lumbar
	{
		OFFSET 0.000000 0.000000 0.000000 
		CHANNELS 3 Zrotation Xrotation Yrotation
		JOINT Neck
		{
			OFFSET 0.000000 0.445665 0.000000 
			CHANNELS 3 Zrotation Xrotation Yrotation
			End Site
			{
				OFFSET 0.000000 0.227535 0.000000 
			}
		}
		JOINT RightShoulder
		{
			OFFSET 0.019635 0.377685 0.194865 
			CHANNELS 3 Zrotation Xrotation Yrotation
			JOINT RightElbow
			{
				OFFSET 0.000000 -0.243375 0.000000 
				CHANNELS 2 Zrotation Yrotation
				JOINT RightWrist
				{
					OFFSET 0.000000 -0.264825 0.000000 
					CHANNELS 2 Zrotation Xrotation
					End Site
					{
						OFFSET 0.006600 -0.176220 0.000990 
					}
				}
			}
		}
		JOINT LeftShoulder
		{
			OFFSET 0.019635 0.377685 -0.194865 
			CHANNELS 3 Zrotation Xrotation Yrotation
			JOINT LeftElbow
			{
				OFFSET 0.000000 -0.243375 0.000000 
				CHANNELS 2 Zrotation Yrotation
				JOINT LeftWrist
				{
					OFFSET 0.000000 -0.264825 0.000000 
					CHANNELS 2 Zrotation Xrotation
					End Site
					{
						OFFSET 0.006600 -0.176220 -0.000990 
					}
				}
			}
		}
	}
	JOINT RightHip
	{
		OFFSET 0.052140 -0.069960 0.075570 
		CHANNELS 3 Zrotation Xrotation Yrotation
		JOINT RightKnee
		{
			OFFSET 0.000000 -0.402270 0.000000 
			CHANNELS 1 Zrotation
			JOINT RightAnkle
			{
				OFFSET 0.000000 -0.404085 0.000000 
				CHANNELS 3 Zrotation Xrotation Yrotation
				End Site
				{
					OFFSET 0.204105 -0.089430 0.008415 
				}
			}
		}
	}
	JOINT LeftHip
	{
		OFFSET 0.052140 -0.069960 -0.075570 
		CHANNELS 3 Zrotation Xrotation Yrotation
		JOINT LeftKnee
		{
			OFFSET 0.000000 -0.402270 0.000000 
			CHANNELS 1 Zrotation
			JOINT LeftAnkle
			{
				OFFSET 0.000000 -0.404085 0.000000 
				CHANNELS 3 Zrotation Xrotation Yrotation
				End Site
				{
					OFFSET 0.204105 -0.089430 -0.008415 
				}
			}
		}
	}
}
MOTION
Frames: 22
Frame Time: 0.02
1.10715 0.12835 -1.16226 376.61662 -29.88467 -0.19451 0.96352 13.15222 -8.89822 -42.65403 -17.41532 -2.11994 19.70904 -26.42185 13.73023 59.07041 77.72929 0.27359 -16.65112 20.93102 23.30804 -18.67921 21.55421 -81.66163 1.17874 5.67556 76.49968 -17.65476 8.07831 -61.81277 -7.19614 -3.57381 -3.99852 75.79126 7.32416 13.2221 -68.83994 -6.33949 3.27778 3.81337
1.10029 0.11653 -1.15766 377.40906 -29.89349 -0.54429 0.22842 12.74836 -8.22297 -43.33588 -16.19141 -2.11994 19.66762 -25.91586 13.55352 57.36263 71.27339 2.3071 -16.3705 20.73995 23.54333 -16.2921 21.14221 -81.66884 0.71042 5.68163 78.40887 -17.69923 8.41967 -64.5119 -7.1812 -3.60833 -4.01427 77.96079 7.91739 13.09093 -71.31091 -6.25507 3.18894 3.76584
1.0937 0.10521 -1.15284 378.12061 -29.94469 -0.836 -0.40571 12.29333 -7.5188 -44.05562 -15.14152 -2.11994 19.47403 -25.49496 13.18582 55.47867 63.25038 4.94881 -15.29779 20.53957 23.77091 -13.82093 20.71113 -81.69239 0.3341 5.62241 80.29216 -17.90747 8.44421 -66.93853 -7.1633 -3.60084 -4.00984 80.05081 8.45376 12.96828 -73.50761 -6.20093 3.10437 3.72198
1.08704 0.0936 -1.14814 378.87096 -29.94541 -1.15195 -1.0852 11.86792 -6.83659 -44.762 -14.01866 -2.11994 19.30843 -25.04049 12.88409 53.70178 56.24031 7.21587 -14.61939 20.32609 23.99483 -11.41744 20.30276 -81.70772 -0.07587 5.58683 82.15072 -18.03664 8.63107 -69.48525 -7.14927 -3.61424 -4.01559 82.14501 9.00254 12.83419 -75.82906 -6.13379 3.01895 3.67703
1.08018 0.08217 -1.1433 379.61528 -30.07852 -1.47951 -1.76767 11.41299 -6.11784 -45.45094 -12.85678 -2.11994 19.31183 -24.56487 12.66601 51.79424 47.95879 9.88742 -13.81437 20.18414 24.25054 -8.86142 19.82381 -81.72523 -0.53593 5.57661 84.16221 -18.18077 8.74584 -72.04956 -7.12974 -3.62365 -4.01908 84.37796 9.61411 12.73774 -78.1566 -6.06303 2.92804 3.62917
1.07379 0.07052 -1.13871 380.35009 -29.94334 -1.76849 -2.41793 11.00802 -5.46811 -46.18524 -11.82162 -2.11994 18.92968 -24.15176 12.23091 50.11898 41.94928 11.86736 -13.0783 19.88991 24.43613 -6.61553 19.49306 -81.74264 -0.86428 5.50134 85.84582 -18.33346 8.93249 -74.50967 -7.11898 -3.62999 -4.0217 86.298 10.07881 12.56191 -80.40231 -6.00726 2.85008 3.5885
1.06859 0.05811 -1.13481 381.10122 -29.08574 -1.96014 -3.02479 10.75818 -5.01551 -47.04084 -11.10639 -2.11994 17.5101 -23.9103 11.23118 49.18313 42.65613 11.75744 -12.72115 19.19865 24.44734 -5.227 19.5605 -81.7552 -0.84675 5.22386 86.67347 -18.48201 9.40678 -76.77368 -7.13313 -3.63812 -4.02691 87.41493 10.15413 12.17511 -82.5059 -5.98433 2.80481 3.56577
1.06388 0.04548 -1.13117 381.84108 -27.95141 -2.11526 -3.59876 10.55988 -4.63338 -47.94011 -10.51273 -2.11994 15.71007 -23.72542 10.02214 48.48028 45.69263 10.93735 -12.45865 18.35111 24.38444 -4.16076 19.7828 -81.76785 -0.69933 4.89082 87.16382 -18.63244 9.96117 -78.93649 -7.15547 -3.64404 -4.03162 88.21073 10.08202 11.70561 -84.53168 -5.97575 2.77292 3.55039
1.05897 0.03297 -1.12744 382.57134 -26.92548 -2.29026 -4.17454 10.33546 -4.21917 -48.81599 -9.85677 -2.11994 14.09149 -23.50168 8.91758 47.63743 47.62596 10.46409 -12.15413 17.56163 24.34486 -2.96373 19.94493 -81.7804 -0.61095 4.60675 87.78226 -18.77425 10.4712 -81.13085 -7.17337 -3.65051 -4.03626 89.12792 10.07552 11.26642 -86.58281 -5.96135 2.73629 3.53233
1.05395 0.02037 -1.12357 383.36167 -25.97512 -2.4504 -4.80314 10.12087 -3.80408 -49.70771 -9.23499 -2.11994 12.43189 -23.33596 7.76761 46.93072 49.69593 9.91055 -11.8198 16.82613 24.35118 -1.6976 20.06007 -81.79179 -0.51582 4.21636 88.50988 -18.95282 11.00557 -83.38152 -7.19434 -3.65768 -4.04157 90.15106 10.07438 10.85798 -88.67124 -5.94489 2.69403 3.51152
1.04928 0.00793 -1.12006 384.02437 -24.80005 -2.63239 -5.31409 9.89837 -3.40809 -50.57685 -8.57044 -2.11994 10.76879 -23.06227 6.664 45.9998 52.05021 9.34726 -11.57816 15.94165 24.24135 -0.65248 20.31395 -81.80788 -0.40981 4.04005 88.92559 -19.0552 11.51022 -85.48835 -7.21081 -3.66316 -4.04552 90.87192 10.02606 10.36619 -90.66142 -5.93592 2.66676 3.49823
1.04538 -0.0043 -1.11736 384.34519 -23.08132 -2.89376 -5.5172 9.64485 -3.04686 -51.36613 -7.74383 -2.11994 9.19419 -22.47196 5.7497 44.38283 54.66841 8.93149 -11.59138 14.68072 23.85531 -0.14738 20.8821 -81.82805 -0.26902 4.42268 88.60333 -18.92819 11.93311 -87.27521 -7.21347 -3.66662 -4.04685 90.89152 9.89939 9.66113 -92.44811 -5.94234 2.6765 3.50324
1.04183 -0.01631 -1.11502 384.53694 -21.14461 -3.17682 -5.60115 9.38135 -2.70304 -52.13079 -6.87249 -2.11994 7.62866 -21.77178 4.88867 42.53674 57.49045 8.52723 -11.69494 13.27629 23.35029 0.14669 21.59102 -81.86311 -0.13217 5.02914 87.97147 -18.7268 12.32128 -88.91206 -7.21123 -3.66828 -4.04676 90.60843 9.72855 8.8764 -94.13062 -5.95595 2.701 3.51563
1.03815 -0.02825 -1.11257 384.78303 -19.30077 -3.44357 -5.73521 9.12022 -2.35144 -52.91285 -6.02928 -2.11994 6.05689 -21.12419 3.99721 40.80075 60.19598 8.11421 -11.74596 11.93931 22.88216 0.54355 22.25518 -81.88618 -0.01381 5.56654 87.45459 -18.57119 12.71378 -90.58496 -7.21077 -3.66951 -4.04674 90.42798 9.56657 8.12928 -95.83053 -5.96731 2.71956 3.52512
1.03434 -0.04091 -1.1099 385.04676 -17.4712 -3.7361 -5.88814 8.86938 -2.00033 -53.67622 -5.15475 -2.11994 4.48215 -20.46624 3.12333 39.04029 63.08546 7.69177 -11.84618 10.58593 22.48297 0.90357 22.84124 -81.89603 0.20785 5.97394 87.03399 -18.36639 13.15687 -92.39109 -7.21237 -3.67574 -4.04902 90.38254 9.44287 7.3701 -97.655 -5.975 2.73565 3.53314
1.03089 -0.05201 -1.10776 385.24343 -15.56657 -3.98073 -5.97011 8.59487 -1.65317 -54.46462 -4.33664 -2.11994 2.91887 -19.80449 2.22982 37.2825 65.60645 7.30079 -11.86685 9.23656 21.91418 1.2901 23.62436 -81.98119 0.19529 6.69361 86.34437 -18.24485 13.48575 -93.88383 -7.20857 -3.67136 -4.04629 89.98969 9.23573 6.62229 -99.19509 -5.99172 2.75984 3.54568
1.02828 -0.05897 -1.10693 385.28506 -13.48567 -4.08698 -5.91758 8.25061 -1.2981 -55.39151 -3.65598 -2.11994 1.40442 -19.14681 1.25861 35.51081 67.07291 6.99911 -11.62434 7.91731 20.89689 1.83684 24.8927 -81.87473 -0.31746 8.32825 84.98419 -18.38401 13.50393 -94.56235 -7.18964 -3.6364 -4.02931 88.70126 8.76755 5.88984 -99.98683 -6.03272 2.80598 3.57067
1.02603 -0.06434 -1.10661 385.26394 -11.34279 -4.14476 -5.79174 7.88398 -0.94923 -56.33211 -3.03883 -2.11994 -0.09952 -18.49158 0.27016 33.76412 68.14142 6.73275 -11.3025 6.61051 19.71632 2.4107 26.35933 -81.90516 -1.08948 10.25009 83.36695 -18.60727 13.40844 -94.92864 -7.16565 -3.59112 -4.00747 87.07806 8.22503 5.17806 -100.49446 -6.08234 2.85909 3.59961
1.02365 -0.07037 -1.10606 385.2726 -9.24374 -4.22531 -5.67865 7.53174 -0.60611 -57.22507 -2.41077 -2.11994 -1.62031 -17.84242 -0.70413 32.05407 69.37989 6.44837 -11.03029 5.30971 18.61544 2.95292 27.74916 -82.14827 -1.84426 11.96969 81.87056 -18.78361 13.3675 -95.42873 -7.14493 -3.55174 -3.98839 85.61548 7.7449 4.4813 -101.12487 -6.12715 2.90683 3.62555
1.02112 -0.07667 -1.10553 385.27159 -7.06884 -4.30295 -5.64882 7.16105 -0.22558 -58.29325 -1.7041 -2.11994 -3.09409 -17.15722 -1.70883 30.12885 70.6981 6.166 -10.70291 3.95586 17.4823 3.57673 29.08353 -81.28202 -2.19154 13.99804 80.34351 -18.99359 13.31437 -95.95709 -7.12009 -3.50729 -3.967 84.10289 7.14383 3.68104 -101.77759 -6.17577 2.96439 3.65681
1.01898 -0.08202 -1.10507 385.27731 -5.0425 -4.37549 -5.42891 6.82399 0.07342 -58.9985 -1.17851 -2.11994 -4.65831 -16.5515 -2.64817 28.66655 71.72119 5.8956 -10.47173 2.71572 16.38528 4.03028 30.58397 -82.69515 -3.42763 15.45088 78.82663 -19.15506 13.25859 -96.35512 -7.10251 -3.47083 -3.94922 82.62327 6.77576 3.0993 -102.31869 -6.21868 3.00299 3.67787
1.01782 -0.08515 -1.10467 385.31862 -3.42281 -4.43991 -4.71026 6.58168 0.16914 -58.71092 -1.12332 -2.11994 -6.51528 -16.14524 -3.45839 28.42846 72.29735 5.58328 -10.51412 1.80308 15.37748 4.089 32.44662 -90.92244 -7.24118 15.2239 77.37522 -19.15677 13.23633 -96.46371 -7.10778 -3.46018 -3.9432 81.28184 7.08608 3.14256 -102.61312 -6.24132 2.98705 3.66935
